<svg xmlns="http://www.w3.org/2000/svg" xmlns:xlink="http://www.w3.org/1999/xlink" width="212" height="40" viewBox="0 0 212 40">
    <defs>
        <path id="a" d="M0 0h36.51v26.667H0z"/>
        <path id="c" d="M0 0v26.667h23.178c7.364 0 13.332-5.968 13.332-13.333C36.51 5.968 30.542 0 23.178 0"/>
        <path id="e" d="M0 40h211.103V0H0z"/>
    </defs>
    <g fill="none" fill-rule="evenodd">
        <path fill="#106437" d="M36.51 26.667c0-7.364-5.969-13.333-13.333-13.333h-9.843C5.97 13.334 0 19.303 0 26.667 0 34.032 5.97 40 13.334 40H36.51V26.689v-.022"/>
        <g>
            <mask id="b" fill="#fff">
                <use xlink:href="#a"/>
            </mask>
            <path fill="#7BBE43" d="M23.178 0H0v26.667h23.178c7.364 0 13.333-5.969 13.333-13.334C36.51 5.968 30.54 0 23.178 0" mask="url(#b)"/>
        </g>
        <g>
            <mask id="d" fill="#fff">
                <use xlink:href="#c"/>
            </mask>
            <path fill="#0C9B53" d="M36.51 26.667c0-7.364-5.969-13.333-13.333-13.333h-9.843C5.97 13.334 0 19.303 0 26.667 0 34.032 5.97 40 13.334 40H36.51V26.689v-.022" mask="url(#d)"/>
        </g>
        <g>
            <path fill="#106437" d="M57.354 12.439V20h6.341c2.768 0 3.99-1.757 3.99-3.722 0-1.875-1.222-3.84-3.96-3.84h-6.37zM72 30.24h-3.899l-6.34-7.204h-4.407v7.204H54.02V9.373c3.245 0 6.46.029 9.705.029 4.822 0 7.353 3.305 7.353 6.818 0 2.977-1.548 5.894-5.657 6.49l6.223 6.935.356.596zM75.635 22.887c0 3.036 2.143 4.882 4.763 4.882 6.34 0 6.34-9.734 0-9.734-2.62 0-4.763 1.846-4.763 4.852zm9.615-7.323h2.977V30.24h-2.918l-.148-2.382c-.983 1.876-3.245 2.77-5.061 2.77-4.287.03-7.531-2.74-7.531-7.74 0-4.913 3.363-7.65 7.59-7.65 2.084 0 4.079.981 5.002 2.648l.089-2.322zM94.896 22.887c0 2.888 2.113 4.792 4.704 4.792 2.56 0 4.643-1.845 4.643-4.792 0-3.006-2.083-4.763-4.643-4.763-2.56 0-4.704 1.935-4.704 4.763zm-.178-13.456v8.425c.952-1.726 3.364-2.619 5.149-2.619 4.228 0 7.443 2.65 7.443 7.65 0 4.853-3.246 7.65-7.502 7.65-1.965 0-3.93-.744-5.09-2.619l-.178 2.322h-2.89V9.431h3.068z"/>
            <mask id="f" fill="#fff">
                <use xlink:href="#e"/>
            </mask>
            <path fill="#106437" d="M109.841 30.24h3.066V15.505h-3.066V30.24zm3.454-18.992c0 2.53-3.811 2.53-3.811 0 0-2.501 3.811-2.501 3.811 0zM121.064 11.337v4.257h4.286v2.65h-4.315v6.995c0 1.548.685 2.411 2.113 2.411.595 0 1.28-.208 1.876-.506l.892 2.62c-1.01.447-1.904.655-2.946.655-3.186.09-5-1.727-5-5.18v-6.995h-2.829v-2.65h2.828v-3.929l3.095-.328zM164.543 22.887c0 3.036 2.143 4.882 4.762 4.882 6.34 0 6.34-9.734 0-9.734-2.62 0-4.762 1.846-4.762 4.852zm9.615-7.323h2.977V30.24h-2.918l-.15-2.382c-.981 1.876-3.244 2.77-5.06 2.77-4.286.03-7.53-2.74-7.53-7.74 0-4.913 3.363-7.65 7.59-7.65 2.084 0 4.079.981 5 2.648l.09-2.322zM191.692 30.24v-7.859c0-2.53-1.429-4.227-3.958-4.227-2.442 0-4.109 1.994-4.109 4.405v7.681h-3.067V15.534h2.8l.178 2.143c1.398-1.577 3.036-2.35 4.941-2.35 3.572 0 6.312 2.53 6.312 7.024v7.89h-3.097zM201.07 9.432v12.146l5.449-6.013h3.72v.178l-6.34 6.728 7.205 7.56v.21h-3.751l-6.282-6.788v6.788h-3.096V9.43zM138.47 24.681c-.294 1.005-.838 1.771-1.618 2.276-.77.5-1.685.753-2.72.753-1.097 0-2.019-.254-2.74-.757-.74-.514-1.179-1.29-1.307-2.308l-.033-.263h8.504l-.087.3zm2.82 1.325c.355-.91.535-1.92.535-2.999 0-1.139-.18-2.189-.536-3.12a6.618 6.618 0 0 0-1.54-2.39c-.669-.66-1.494-1.18-2.452-1.544-.962-.365-2.078-.55-3.314-.55-.54 0-1.103.05-1.675.145a9.537 9.537 0 0 0-1.657.436 8.839 8.839 0 0 0-1.525.726 6.8 6.8 0 0 0-1.126.845l1.994 1.97c.198-.172.423-.327.673-.464a6.393 6.393 0 0 1 1.037-.448 7.208 7.208 0 0 1 2.22-.37c1.338 0 2.42.312 3.212.928.802.622 1.273 1.431 1.4 2.405l.034.264h-11.525c-.109 1.39-.025 2.624.25 3.67.287 1.092.752 2.02 1.382 2.754a5.838 5.838 0 0 0 2.351 1.647c.942.365 2.027.55 3.223.55 1.157 0 2.216-.185 3.148-.55a6.753 6.753 0 0 0 2.378-1.54 6.898 6.898 0 0 0 1.513-2.365zM147.364 22.887c0 2.888 2.113 4.792 4.704 4.792 2.56 0 4.643-1.845 4.643-4.792 0-3.006-2.083-4.763-4.643-4.763-2.56 0-4.704 1.935-4.704 4.763zm-.178-13.456v8.425c.952-1.726 3.363-2.619 5.15-2.619 4.227 0 7.441 2.65 7.441 7.65 0 4.853-3.245 7.65-7.502 7.65-1.964 0-3.929-.744-5.089-2.619l-.179 2.322h-2.888V9.431h3.067z" mask="url(#f)"/>
        </g>
    </g>
</svg>
